<svg xmlns="http://www.w3.org/2000/svg" xmlns:xlink="http://www.w3.org/1999/xlink" width="16" height="16" viewBox="0 0 16 16"><defs><clipPath id="clip-pathSolder"><rect id="Rectangle_75274" data-name="Rectangle 75274" width="16" height="16" transform="translate(1236 800)" fill="#85754e" stroke="#707070" stroke-width="1"></rect></clipPath></defs><g id="Mask_Group_96682" data-name="Mask Group 96682" transform="translate(-1236 -800)" clip-path="url(#clip-pathSolder)"><g id="svgexport-17_-_2023-12-10T143952.001" data-name="svgexport-17 - 2023-12-10T143952.001" transform="translate(1236 800)"><path id="Path_74920" data-name="Path 74920" d="M9.941,1.317l-1.053-.15L8.418.24a.488.488,0,0,0-.837,0l-.469.928-1.053.15a.469.469,0,0,0-.257.8l.756.719L6.38,3.852a.47.47,0,0,0,.676.5L8,3.865l.944.485a.469.469,0,0,0,.676-.5L9.442,2.84l.756-.719a.469.469,0,0,0-.257-.8ZM15.6,4.176l-1.053-.15L14.075,3.1a.488.488,0,0,0-.837,0l-.469.928-1.053.15a.469.469,0,0,0-.257.8l.756.719-.178,1.013a.47.47,0,0,0,.676.5l.944-.485.944.485a.469.469,0,0,0,.676-.5L15.1,5.7l.756-.719A.469.469,0,0,0,15.6,4.176Zm-11.312,0-1.053-.15L2.762,3.1a.488.488,0,0,0-.837,0l-.469.928L.4,4.176a.469.469,0,0,0-.257.8L.9,5.7.723,6.711a.47.47,0,0,0,.676.5l.944-.485.944.485a.469.469,0,0,0,.676-.5L3.786,5.7l.756-.719a.469.469,0,0,0-.257-.8ZM9.69,10.262a2.813,2.813,0,1,0-3.38,0,4.221,4.221,0,0,0-2.529,3.86v1.406A.468.468,0,0,0,4.25,16h7.5a.468.468,0,0,0,.469-.469V14.122A4.221,4.221,0,0,0,9.69,10.262Z" fill="#85754e"></path></g></g></svg>