<svg xmlns="http://www.w3.org/2000/svg" xmlns:xlink="http://www.w3.org/1999/xlink" width="16" height="16" viewBox="0 0 16 16"><defs><clipPath id="clip-pathIcon1"><rect id="Rectangle_75274" data-name="Rectangle 75274" width="16" height="16" transform="translate(1236 800)" fill="#85754e" stroke="#707070" stroke-width="1"></rect></clipPath></defs><g id="Mask_Group_96680" data-name="Mask Group 96680" transform="translate(-1236 -800)" clip-path="url(#clip-pathIcon1)"><g id="svgexport-6_-_2023-12-10T143303.496" data-name="svgexport-6 - 2023-12-10T143303.496" transform="translate(1236 800)"><path id="Path_74916" data-name="Path 74916" d="M8.469,10.813a.469.469,0,0,0,.469-.469V8.469A.469.469,0,0,0,8.469,8H7.531a.469.469,0,0,0-.469.469v1.875a.469.469,0,0,0,.469.469Z" fill="#85754e"></path><path id="Path_74917" data-name="Path 74917" d="M14.594,2.844H11.281V2.375A1.408,1.408,0,0,0,9.875.969H6.125A1.408,1.408,0,0,0,4.719,2.375v.469H1.406A1.408,1.408,0,0,0,0,4.25,7.789,7.789,0,0,0,.336,6.657a4.18,4.18,0,0,0,1,1.694A3.751,3.751,0,0,0,4.1,9.406H6.125V8.469A1.408,1.408,0,0,1,7.531,7.063h.938A1.408,1.408,0,0,1,9.875,8.469v.938h1.042c.933-.039,2.459.245,3.746-1.035a4.163,4.163,0,0,0,1-1.7A7.874,7.874,0,0,0,16,4.25,1.408,1.408,0,0,0,14.594,2.844ZM5.656,2.375a.469.469,0,0,1,.469-.469h3.75a.469.469,0,0,1,.469.469v.469H5.656Z" fill="#85754e"></path><path id="Path_74918" data-name="Path 74918" d="M10.929,10.344H9.875A1.408,1.408,0,0,1,8.469,11.75H7.531a1.408,1.408,0,0,1-1.406-1.406H4.106A4.67,4.67,0,0,1,.675,9.015,4.7,4.7,0,0,1,0,8.151v6.412a.468.468,0,0,0,.469.469H15.531A.468.468,0,0,0,16,14.563V8.17a4.67,4.67,0,0,1-.676.865c-1.479,1.471-3.054,1.245-4.395,1.308Z" fill="#85754e"></path></g></g></svg>