<svg xmlns="http://www.w3.org/2000/svg" xmlns:xlink="http://www.w3.org/1999/xlink" width="16" height="16" viewBox="0 0 16 16"><defs><clipPath id="clip-pathMoney"><rect id="Rectangle_75274" data-name="Rectangle 75274" width="16" height="16" transform="translate(1236 800)" fill="#85754e" stroke="#707070" stroke-width="1"></rect></clipPath></defs><g id="Mask_Group_96681" data-name="Mask Group 96681" transform="translate(-1236 -800)" clip-path="url(#clip-pathMoney)"><g id="svgexport-17_-_2023-12-10T143446.993" data-name="svgexport-17 - 2023-12-10T143446.993" transform="translate(1236 800)"><path id="Path_74919" data-name="Path 74919" d="M.218,8.021a.333.333,0,0,0-.2.427l.209.576L1.823,7.429Zm1.509,5.12.96,2.64a.33.33,0,0,0,.173.188A.335.335,0,0,0,3,16a.326.326,0,0,0,.115-.021l1.059-.391L1.727,13.141ZM15.98,10.887l-1.1-3.021L12.244,10.5l1.307-.481a.333.333,0,1,1,.231.625l-1.66.612a.333.333,0,0,1-.428-.2s0,0,0-.006L8.9,13.849l6.882-2.536a.332.332,0,0,0,.2-.427ZM15.9,5.431,10.569.1A.334.334,0,0,0,10.1.1l-10,10a.334.334,0,0,0,0,.471L5.431,15.9a.33.33,0,0,0,.235.1.335.335,0,0,0,.236-.1l10-10a.334.334,0,0,0,0-.472ZM3.9,9.236,2.569,10.569A.334.334,0,0,1,2.1,10.1L3.431,8.765a.334.334,0,0,1,.472.471Zm5.756.423a1.258,1.258,0,0,1-.913.349,2.754,2.754,0,0,1-1.854-.885A3.054,3.054,0,0,1,6.059,7.7a1.393,1.393,0,0,1,.3-1.349A1.389,1.389,0,0,1,7.7,6.06a3.048,3.048,0,0,1,1.419.833C10.049,7.817,10.285,9.033,9.659,9.659ZM13.9,5.9,12.569,7.236a.334.334,0,1,1-.472-.471L13.43,5.432A.334.334,0,0,1,13.9,5.9Z" fill="#85754e"></path></g></g></svg>