<svg xmlns="http://www.w3.org/2000/svg" width="219.69099999999997" height="42.5" viewBox="0 0 129.23 25" class=" w-full max-w-full relative lg:top-1 "><g transform="translate(-113.108 -88.316)"><g fill="#85754e" data-name="Group 92760" transform="translate(141.401 94.41)"><path d="M25.542 155.9l-.037-.1H25.1l-2.139 5.855h-.742v.434h2.011v-.434h-.81l.715-1.954h1.622l.715 1.954h-.811v.434h2.75v-.434h-.754zm.051 3.364H24.3l.648-1.769.648 1.769z" data-name="Path 71957" transform="translate(-22.217 -155.796)"></path><path d="M50.517 160.3a2.662 2.662 0 01-.543 1.158 1.241 1.241 0 01-.978.4h-1.255v-5.278h.879v-.434h-2.86v.434h.879v5.278h-.879v.434h5.151v-2.111h-.362l-.03.122z" data-name="Path 71958" transform="translate(-36.194 -156.004)"></path><path d="M67.669 156.58h.879v5.278h-.879v.434h2.86v-.434h-.879v-5.278h.879v-.434h-2.86z" data-name="Path 71959" transform="translate(-48.199 -156.004)"></path><path d="M90.667 155.9l-.041-.1h-.4l-2.139 5.855h-.745v.434h2.013v-.434h-.81l.715-1.954h1.625l.715 1.954h-.812v.434h2.749v-.434h-.752l-2.118-5.755zm.051 3.364h-1.295l.648-1.769.648 1.769z" data-name="Path 71960" transform="translate(-59.391 -155.796)"></path><path d="M115.641 160.3a2.63 2.63 0 01-.543 1.158 1.24 1.24 0 01-.978.4h-1.255v-5.278h.879v-.434h-2.86v.434h.879v5.278h-.879v.434h5.151v-2.111h-.362l-.03.122z" data-name="Path 71961" transform="translate(-72.853 -156.004)"></path><path d="M135.384 158.627l1.869-2.047H138v-.434h-1.95v.434h.618l-1.957 2.129v-2.129h.816v-.434h-2.8v.434h.882v5.278h-.88v.434h2.8v-.434h-.816V159.5l1.95 2.357h-.532v.434h2.6v-.434h-.609z" data-name="Path 71962" transform="translate(-85.305 -156.004)"></path><path d="M159.107 156.58h.879v2.356h-2.329v-2.356h.88v-.434h-2.86v.434h.879v5.278h-.879v.434h2.86v-.434h-.88v-2.487h2.329v2.487h-.879v.434h2.86v-.434h-.881v-5.278h.88v-.434h-2.86z" data-name="Path 71963" transform="translate(-98.396 -156.004)"></path><path d="M182.777 155.9l-.037-.1h-.406l-2.139 5.855h-.745v.434h2.013v-.434h-.811l.715-1.954h1.625l.715 1.954h-.807v.434h2.75v-.434h-.752l-2.117-5.752zm.051 3.364h-1.295l.648-1.769.648 1.769z" data-name="Path 71964" transform="translate(-111.969 -155.796)"></path><path d="M203.513 156.58h.88v4.763a.842.842 0 01-.107.515.3.3 0 01-.254.119.329.329 0 01-.2-.05c-.01-.008-.041-.029-.041-.135a.454.454 0 01.016-.137c.017-.055.031-.1.046-.134s.031-.087.048-.131a.6.6 0 00.033-.21.551.551 0 00-.027-.162.5.5 0 00-.093-.174.53.53 0 00-.172-.135.585.585 0 00-.267-.057.646.646 0 00-.51.2.731.731 0 00-.175.5.9.9 0 00.113.448 1.046 1.046 0 00.292.331 1.323 1.323 0 00.422.2 1.878 1.878 0 00.508.068 1.537 1.537 0 00.685-.143 1.239 1.239 0 00.466-.4 1.633 1.633 0 00.246-.572 3.037 3.037 0 00.071-.666v-4.05h.88v-.434h-2.86v.434z" data-name="Path 71965" transform="translate(-125.348 -156.004)"></path><path d="M225.262 160.32a2.813 2.813 0 01-.105.447 1.835 1.835 0 01-.248.508 1.553 1.553 0 01-.429.416 1.142 1.142 0 01-.641.168H222.5v-2.634h.488a.791.791 0 01.389.084.645.645 0 01.229.221 1.335 1.335 0 01.148.35c.034.123.07.268.114.453l.028.122h.363v-2.865h-.359l-.03.122a4.528 4.528 0 01-.171.58.921.921 0 01-.188.315.52.52 0 01-.244.143 1.59 1.59 0 01-.406.042h-.361v-2.209h1.159a1.552 1.552 0 01.5.072.892.892 0 01.338.213 1.351 1.351 0 01.255.368 4.02 4.02 0 01.212.537l.034.11h.355v-1.736h-4.843v.434h.879v5.278h-.879v.434h5.142v-2.111h-.377l-.017.139z" data-name="Path 71966" transform="translate(-134.896 -156.005)"></path><path d="M249.027 156.58v-.434h-2.86v.434h.879v2.356h-2.329v-2.356h.88v-.434h-2.86v.434h.879v5.278h-.879v.434h2.86v-.434h-.88v-2.487h2.329v2.487h-.879v.434h2.86v-.434h-.879v-5.278z" data-name="Path 71967" transform="translate(-148.09 -156.004)"></path></g><g data-name="Group 92761" transform="translate(113.108 88.316)"><path d="M139.923 88.676l-.349-.18-.352-.181-.352.181-.349.18.127 5.034.464 18.228.039.618.071.76.071-.76.039-.618.464-18.228.127-5.034z" data-name="Path 71968" transform="translate(-128.018 -88.316)"></path><path fill="#85754e" d="M117.869 95.872l-.036-.1h-.491l-3.159 8.377h-1.074v.467h2.819v-.467H114.7l2.367-6.24 2.365 6.24H118.2v.467h3.907v-.467h-1.089z" data-name="Path 71969" transform="translate(-113.108 -92.693)"></path><path fill="#85754e" d="M150.359 95.874l-.038-.1h-.491l-3.182 8.377h-1.088v.467h3.907v-.467h-1.23l2.365-6.24 2.367 6.24h-1.232v.467h2.819v-.467h-1.074z" data-name="Path 71970" transform="translate(-132.149 -92.693)"></path></g></g></svg>