<svg xmlns="http://www.w3.org/2000/svg" xmlns:xlink="http://www.w3.org/1999/xlink" width="20" height="20" viewBox="0 0 20 20"><defs><clipPath id="clip-pathThree"><rect id="Rectangle_75038" data-name="Rectangle 75038" width="20" height="20" transform="translate(1248 1888)" fill="#85754e"></rect></clipPath></defs><g id="Mask_Group_88664" data-name="Mask Group 88664" transform="translate(-1248 -1888)" clip-path="url(#clip-pathThree)"><g id="garage" transform="translate(1248 1888)"><path id="Path_73508" data-name="Path 73508" d="M13.221,17.175h2.825V20H13.221Z" fill="#85754e"></path><path id="Path_73509" data-name="Path 73509" d="M18.682,20V14.539H0V20H12.05V16h5.169v4ZM2.669,17.2H1.5V16.032H2.669Zm2.636,0H4.132V16.032H5.3Zm2.635,0H6.768V16.032H7.939Zm2.719,0H9.341V16.032h1.318ZM0,11.9H20v1.464H0ZM14.048,8.1V0h-8.1V8.1ZM7.943,1.465h2.211a1.9,1.9,0,1,1,0,3.807H9.115v1.4H7.943Z" fill="#85754e"></path><path id="Path_73510" data-name="Path 73510" d="M10.886,3.369a.733.733,0,0,0-.732-.732H9.115V4.1h1.039A.733.733,0,0,0,10.886,3.369Zm-1.617,5.9h1.464v1.464H9.268Z" fill="#85754e"></path></g></g></svg>