<svg xmlns="http://www.w3.org/2000/svg" width="16" height="16" viewBox="0 0 16 16"><defs><clipPath id="message"><path fill="#85754e" stroke="#707070" stroke-width="1" d="M0 0H16V16H0z" data-name="Rectangle 70058"></path></clipPath></defs><g clip-path="url(#message)" data-name="Mask Group 88552"><g fill="#85754e" data-name="svgexport-17 - 2023-10-05T132105.263" transform="translate(0 2.458)"><path d="M15.762 3.768l-4.823 4.791 4.823 4.792a1.382 1.382 0 00.14-.6V4.366a1.381 1.381 0 00-.14-.598zm-1.258-.8H1.4a1.381 1.381 0 00-.6.14l6.163 6.134a1.4 1.4 0 001.976 0L15.1 3.109a1.381 1.381 0 00-.6-.14zm-14.364.8a1.381 1.381 0 00-.14.6v8.386a1.381 1.381 0 00.14.6l4.823-4.795z" data-name="Path 71872" transform="translate(0 -2.969)"></path><path d="M10.486 10.829l-.682.682a2.332 2.332 0 01-3.294 0l-.682-.682L1 15.62a1.381 1.381 0 00.6.14h13.111a1.381 1.381 0 00.6-.14z" data-name="Path 71873" transform="translate(-.206 -4.579)"></path></g></g></svg>