<svg xmlns="http://www.w3.org/2000/svg" xmlns:xlink="http://www.w3.org/1999/xlink" width="20" height="20" viewBox="0 0 20 20"><defs><clipPath id="clip-pathFour"><rect id="Rectangle_70059" data-name="Rectangle 70059" width="20" height="20" transform="translate(1254 4501)" fill="#85754e" stroke="#707070" stroke-width="1"></rect></clipPath></defs><g id="Mask_Group_96685" data-name="Mask Group 96685" transform="translate(-1254 -4501)" clip-path="url(#clip-pathFour)"><g id="svgexport-17_-_2023-12-11T115750.884" data-name="svgexport-17 - 2023-12-11T115750.884" transform="translate(1254 4501)"><g id="Group_97577" data-name="Group 97577" transform="translate(0 -0.033)"><path id="Path_74921" data-name="Path 74921" d="M7.995,5.571l.841,1.123A1.047,1.047,0,0,0,9.2,7l5.336,2.687h.611a1.04,1.04,0,0,1,1.04,1.04v.693h2.08V9.162a.347.347,0,0,0-.184-.306L3.363,1.024l-.75,1.557,4.8,2.49a1.736,1.736,0,0,1,.586.5Zm.959-.393a.347.347,0,0,1,.469-.143l5.2,2.765a.347.347,0,1,1-.326.612L9.1,5.646a.347.347,0,0,1-.143-.469ZM1.465,10.63.708,13.153H2.669a.347.347,0,0,0,.347-.347V10.38H1.8a.349.349,0,0,0-.334.251ZM.821,1.141l1.371.717.378-.784L1.217.376A.43.43,0,0,0,.883.35.419.419,0,0,0,.637.564a.43.43,0,0,0,.183.577ZM16.187,12.113v3.466h3.119V12.806a.693.693,0,0,0-.693-.693H16.187Zm2.08,2.773h-1.04a.347.347,0,0,1,0-.693h1.04a.347.347,0,0,1,0,.693Zm0-1.386h-1.04a.347.347,0,1,1,0-.693h1.04a.347.347,0,0,1,0,.693Z" fill="#85754e"></path><circle id="Ellipse_9673" data-name="Ellipse 9673" cx="1.04" cy="1.04" r="1.04" transform="translate(1.976 17.658)" fill="#85754e"></circle><path id="Path_74922" data-name="Path 74922" d="M5.789,16.272H20v.693H5.789Zm0-3.119v2.426h.693V13.5a.347.347,0,0,0-.347-.347Zm8.319-.347V10.38h-.87a.349.349,0,0,0-.334.251l-.758,2.522h1.615a.347.347,0,0,0,.347-.347Zm-6.932,2.08v.693H8.562v-.347a.347.347,0,0,0-.347-.347Z" fill="#85754e"></path><path id="Path_74923" data-name="Path 74923" d="M12.028,15.579h3.466V10.726a.347.347,0,0,0-.347-.347H14.8v2.426a1.04,1.04,0,0,1-1.04,1.04H12.028Z" fill="#85754e"></path><circle id="Ellipse_9674" data-name="Ellipse 9674" cx="1.04" cy="1.04" r="1.04" transform="translate(12.374 17.658)" fill="#85754e"></circle><path id="Path_74924" data-name="Path 74924" d="M12.037,17.658H9.246a1.717,1.717,0,0,1,.321.693h2.149a1.717,1.717,0,0,1,.321-.693Zm4.159,0h-1.4a1.717,1.717,0,0,1,.321.693h.763a1.718,1.718,0,0,1,.321-.693Z" fill="#85754e"></path><circle id="Ellipse_9675" data-name="Ellipse 9675" cx="1.04" cy="1.04" r="1.04" transform="translate(16.534 17.658)" fill="#85754e"></circle><path id="Path_74925" data-name="Path 74925" d="M19.653,17.658h-.7a1.717,1.717,0,0,1,.321.693h.382v-.693Zm-13.162,0h-.7v.693H6.17a1.716,1.716,0,0,1,.321-.693Zm-5.9.347a.347.347,0,0,0,.347.347h.381a1.733,1.733,0,0,1,3.4,0H5.1v-2.08H3.016a2.05,2.05,0,0,0-1.2.372,1.773,1.773,0,0,1-1,.321H.59v1.04Zm0-1.733H.817a1.087,1.087,0,0,0,.6-.2,2.749,2.749,0,0,1,1.594-.492H5.1V10.726a.347.347,0,0,0-.347-.347H3.709v2.426a1.04,1.04,0,0,1-1.04,1.04H.59Z" fill="#85754e"></path><circle id="Ellipse_9676" data-name="Ellipse 9676" cx="1.04" cy="1.04" r="1.04" transform="translate(6.829 17.658)" fill="#85754e"></circle><path id="Path_74926" data-name="Path 74926" d="M.947,7.26a1.134,1.134,0,0,0,.26-.031,1.03,1.03,0,0,0,.756-.787,1.065,1.065,0,0,0-.669-1.217V2.172L.6,1.808V5.226a.693.693,0,0,0,.458.665.348.348,0,1,1-.412.5.347.347,0,0,0-.471-.128.35.35,0,0,0-.128.475,1.036,1.036,0,0,0,.9.52Z" fill="#85754e"></path></g></g></g></svg>