<svg xmlns="http://www.w3.org/2000/svg" xmlns:xlink="http://www.w3.org/1999/xlink" width="20" height="20" viewBox="0 0 20 20"><defs><clipPath id="clip-pathDetails"><rect id="Rectangle_75037" data-name="Rectangle 75037" width="20" height="20" transform="translate(1240 1718)" fill="#85754e"></rect></clipPath></defs><g id="Mask_Group_88662" data-name="Mask Group 88662" transform="translate(-1240 -1718)" clip-path="url(#clip-pathDetails)"><g id="Land_area" data-name="Land area" transform="translate(1240 1718.023)"><path id="Path_73501" data-name="Path 73501" d="M20.93,14.374h.827v.963H20.93Zm0,2.471h.827v.963H20.93ZM14.6,11.709h.839v1.4H14.6Z" transform="translate(-8.587 -7.788)" fill="#85754e"></path><path id="Path_73502" data-name="Path 73502" d="M26.117,17.63V15.49a.247.247,0,0,1,.246-.246h1.053a.247.247,0,0,1,.246.246v2.14h.584V7.361H21.01V17.63Zm0-9.5a.3.3,0,0,1,.3-.3h.946a.3.3,0,0,1,.3.3V9.212a.3.3,0,0,1-.3.3h-.946a.3.3,0,0,1-.3-.3Zm0,2.471a.3.3,0,0,1,.3-.3h.946a.3.3,0,0,1,.3.3v1.083a.3.3,0,0,1-.3.3h-.946a.3.3,0,0,1-.3-.3Zm0,2.471a.3.3,0,0,1,.3-.3h.946a.3.3,0,0,1,.3.3v1.083a.3.3,0,0,1-.3.3h-.946a.3.3,0,0,1-.3-.3ZM23.855,8.129a.3.3,0,0,1,.3-.3H25.1a.3.3,0,0,1,.3.3V9.212a.3.3,0,0,1-.3.3h-.946a.3.3,0,0,1-.3-.3Zm0,2.471a.3.3,0,0,1,.3-.3H25.1a.3.3,0,0,1,.3.3v1.083a.3.3,0,0,1-.3.3h-.946a.3.3,0,0,1-.3-.3Zm0,2.471a.3.3,0,0,1,.3-.3H25.1a.3.3,0,0,1,.3.3v1.083a.3.3,0,0,1-.3.3h-.946a.3.3,0,0,1-.3-.3Zm0,2.471a.3.3,0,0,1,.3-.3H25.1a.3.3,0,0,1,.3.3v1.083a.3.3,0,0,1-.3.3h-.946a.3.3,0,0,1-.3-.3ZM21.593,8.129a.3.3,0,0,1,.3-.3h.946a.3.3,0,0,1,.3.3V9.212a.3.3,0,0,1-.3.3h-.946a.3.3,0,0,1-.3-.3Zm0,2.471a.3.3,0,0,1,.3-.3h.946a.3.3,0,0,1,.3.3v1.083a.3.3,0,0,1-.3.3h-.946a.3.3,0,0,1-.3-.3Zm0,2.471a.3.3,0,0,1,.3-.3h.946a.3.3,0,0,1,.3.3v1.083a.3.3,0,0,1-.3.3h-.946a.3.3,0,0,1-.3-.3Zm.3,2.172h.946a.3.3,0,0,1,.3.3v1.083a.3.3,0,0,1-.3.3h-.946a.3.3,0,0,1-.3-.3V15.543A.3.3,0,0,1,21.892,15.244ZM20.651,17.63V11.654l-2.47-1.439V17.63ZM19.626,16.1h-.359a.18.18,0,0,1,0-.359h.359a.18.18,0,0,1,0,.359Zm-.359-3.712h.359a.18.18,0,0,1,0,.359h-.359a.18.18,0,0,1,0-.359Zm0,1.676h.359a.18.18,0,0,1,0,.359h-.359a.18.18,0,0,1,0-.359Z" transform="translate(-9.609 -6.546)" fill="#85754e"></path><path id="Path_73503" data-name="Path 73503" d="M19.044,8.281h.827v.963h-.827Zm-6.327-.6h.839v1.4h-.839Zm10.851,8.014h.827v2.027h-.827Zm-4.524-4.943h.827v.963h-.827Zm4.524,2.471h.827v.963h-.827Zm0-4.942h.827v.963h-.827Zm-2.262,7.414h.827v.963h-.827Zm2.262-4.943h.827v.963h-.827Zm-2.262,2.471h.827v.963h-.827Zm0-2.471h.827v.963h-.827Zm0-2.471h.827v.963h-.827ZM11,8.515,8,9.958v7.764h3Zm-.73,7.443a.3.3,0,0,1-.3.3H9.012a.3.3,0,0,1-.3-.3V14.441a.3.3,0,0,1,.3-.3h.959a.3.3,0,0,1,.3.3Zm-.3-2.921H9.012a.3.3,0,0,1-.3-.3V11.22a.3.3,0,0,1,.3-.3h.959a.3.3,0,0,1,.3.3v1.517A.3.3,0,0,1,9.971,13.037Z" transform="translate(-6.701 -6.637)" fill="#85754e"></path><path id="Path_73504" data-name="Path 73504" d="M8.552,15.941h.839v1.4H8.552Zm0-3.221h.839v1.4H8.552Zm16.2,12.043a.18.18,0,0,1,0-.359h1.418l0-3.269h-20V24.4H7.6a.18.18,0,0,1,0,.359H6.18v2.869a.4.4,0,0,0,.4.4H25.77a.4.4,0,0,0,.4-.4l0-2.87Zm-14.026,0h-1.6a.18.18,0,0,1,0-.359h1.6a.18.18,0,0,1,0,.359Zm3.126,0h-1.6a.18.18,0,0,1,0-.359h1.6a.18.18,0,0,1,0,.359Zm3.126,0h-1.6a.18.18,0,0,1,0-.359h1.6a.18.18,0,0,1,0,.359Zm3.126,0H18.5a.18.18,0,0,1,0-.359h1.6a.18.18,0,0,1,0,.359Zm3.126,0h-1.6a.18.18,0,0,1,0-.359h1.6a.18.18,0,0,1,0,.359Zm2.945-3.988,0-1.254h-20v1.254ZM12.2,17.753h.839v1.408H12.2Z" transform="translate(-6.18 -8.077)" fill="#85754e"></path><path id="Path_73505" data-name="Path 73505" d="M13.7,17.3v-1.52a.247.247,0,0,1,.247-.247h1.064a.247.247,0,0,1,.247.247V17.3h1V6.22H12.7V17.3Zm0-10.1a.3.3,0,0,1,.3-.3h.959a.3.3,0,0,1,.3.3V8.72a.3.3,0,0,1-.3.3H14a.3.3,0,0,1-.3-.3Zm0,2.878a.3.3,0,0,1,.3-.3h.959a.3.3,0,0,1,.3.3V11.6a.3.3,0,0,1-.3.3H14a.3.3,0,0,1-.3-.3Zm0,2.878a.3.3,0,0,1,.3-.3h.959a.3.3,0,0,1,.3.3v1.517a.3.3,0,0,1-.3.3H14a.3.3,0,0,1-.3-.3Z" transform="translate(-8.044 -6.22)" fill="#85754e"></path><path id="Path_73506" data-name="Path 73506" d="M14.6,15.738h.839v1.4H14.6Z" transform="translate(-8.587 -8.939)" fill="#85754e"></path></g></g></svg>