<svg xmlns="http://www.w3.org/2000/svg" xmlns:xlink="http://www.w3.org/1999/xlink" width="20" height="20" viewBox="0 0 20 20"><defs><clipPath id="clip-pathTwoIc"><rect id="Rectangle_75039" data-name="Rectangle 75039" width="20" height="20" transform="translate(1248 1829)" fill="#85754e"></rect></clipPath></defs><g id="Mask_Group_88663" data-name="Mask Group 88663" transform="translate(-1248 -1829)" clip-path="url(#clip-pathTwoIc)"><g id="unit" transform="translate(1245.5 1826.5)"><path id="Path_73507" data-name="Path 73507" d="M2.5,22.5H5.235V18.14H8.688V22.5h2.735V2.5H2.5ZM3.955,4.215H9.968v1.5H3.955Zm0,2.678H9.968V8.4H3.955Zm0,2.679H9.968v1.5H3.955Zm0,2.678H9.968v1.5H3.955Zm0,2.678H9.968v1.5H3.955Zm11.666-.5a2.09,2.09,0,0,0-.375,4.147V22.5H16V18.572a2.09,2.09,0,0,0-.375-4.146Zm4.788,2a2.09,2.09,0,0,0-.375,4.146V22.5h.75V20.572a2.09,2.09,0,0,0-.375-4.146Z" fill="#85754e"></path></g></g></svg>