<svg xmlns="http://www.w3.org/2000/svg" width="1em" height="1em"><defs><clipPath id="env-icon"><path fill="#85754e" d="M1248 1829h20v20h-20z" data-name="Rectangle 75039"></path></clipPath></defs><g clip-path="url(#env-icon)" data-name="Mask Group 88663" transform="translate(-1248 -1829)"><path fill="#85754e" d="M1248 1849h2.735v-4.36h3.453v4.36h2.735v-20H1248Zm1.455-18.285h6.013v1.5h-6.013Zm0 2.678h6.013v1.507h-6.013Zm0 2.679h6.013v1.5h-6.013Zm0 2.678h6.013v1.5h-6.013Zm0 2.678h6.013v1.5h-6.013Zm11.666-.5a2.09 2.09 0 0 0-.375 4.147V1849h.754v-3.928a2.09 2.09 0 0 0-.375-4.146Zm4.788 2a2.09 2.09 0 0 0-.375 4.146V1849h.75v-1.928a2.09 2.09 0 0 0-.375-4.146Z" data-name="Path 73507"></path></g></svg>