<svg xmlns="http://www.w3.org/2000/svg" width="22" height="22" viewBox="0 0 22 22" class="relative inset-x-[2px] inset-y-[1px]"><defs><clipPath id="contact-us-icon"><path fill="#fff" stroke="#707070" stroke-width="1" d="M0 0H22V22H0z" data-name="Rectangle 70154" transform="translate(19.133 19.132)"></path></clipPath></defs><g clip-path="url(#contact-us-icon)" data-name="Mask Group 96672" transform="translate(-19.133 -19.132)"><g fill="#fff" data-name="svgexport-17 - 2023-12-04T212405.035" transform="translate(15.563 15.561)"><path d="M22.906 19.843l-2.95-2.061a2.277 2.277 0 00-3.171.564l-.684.981a25.378 25.378 0 01-3.65-3.065 25.351 25.351 0 01-3.065-3.649l.981-.684a2.276 2.276 0 00.564-3.172L8.87 5.806a2.276 2.276 0 00-2.6-.852 4.13 4.13 0 00-.767.377l-.408.287a3.259 3.259 0 00-.287.256 4.1 4.1 0 00-1.048 1.87c-.849 3.183 1.255 8 5.234 11.976 3.342 3.342 7.358 5.419 10.479 5.419a5.821 5.821 0 001.5-.184 4.093 4.093 0 001.869-1.048 3.073 3.073 0 00.27-.305l.287-.41a4.055 4.055 0 00.363-.747 2.241 2.241 0 00-.852-2.6z" data-name="Path 74903"></path><path d="M25.116 4H14.187a.455.455 0 00-.455.455v6.375a.455.455 0 00.455.455H15.8l1.091 2.315a.455.455 0 00.824 0l1.085-2.31h6.315a.455.455 0 00.455-.455V4.459A.455.455 0 0025.116 4zm-2.305 5.013h-6.318a.455.455 0 010-.911h6.318a.455.455 0 110 .911zm0-1.821h-6.318a.455.455 0 010-.911h6.318a.455.455 0 110 .911z" data-name="Path 74904"></path></g></g></svg>