<svg xmlns="http://www.w3.org/2000/svg" width="1em" height="1em"><defs><clipPath id="city-icon"><path fill="#85754e" d="M1240 1718h20v20h-20z" data-name="Rectangle 75037"></path></clipPath></defs><g clip-path="url(#city-icon)" data-name="Mask Group 88662" transform="translate(-1240 -1718)"><g fill="#85754e" data-name="Land area"><path d="M1252.343 1724.609h.827v.963h-.827Zm0 2.471h.827v.963h-.827Zm-6.33-5.136h.839v1.4h-.839Z" data-name="Path 73501"></path><path d="M1256.508 1729.107v-2.14a.247.247 0 0 1 .246-.246h1.053a.247.247 0 0 1 .246.246v2.14h.584v-10.269h-7.236v10.269Zm0-9.5a.3.3 0 0 1 .3-.3h.946a.3.3 0 0 1 .3.3v1.082a.3.3 0 0 1-.3.3h-.946a.3.3 0 0 1-.3-.3Zm0 2.471a.3.3 0 0 1 .3-.3h.946a.3.3 0 0 1 .3.3v1.083a.3.3 0 0 1-.3.3h-.946a.3.3 0 0 1-.3-.3Zm0 2.471a.3.3 0 0 1 .3-.3h.946a.3.3 0 0 1 .3.3v1.083a.3.3 0 0 1-.3.3h-.946a.3.3 0 0 1-.3-.3Zm-2.262-4.943a.3.3 0 0 1 .3-.3h.945a.3.3 0 0 1 .3.3v1.083a.3.3 0 0 1-.3.3h-.946a.3.3 0 0 1-.3-.3Zm0 2.471a.3.3 0 0 1 .3-.3h.945a.3.3 0 0 1 .3.3v1.083a.3.3 0 0 1-.3.3h-.946a.3.3 0 0 1-.3-.3Zm0 2.471a.3.3 0 0 1 .3-.3h.945a.3.3 0 0 1 .3.3v1.083a.3.3 0 0 1-.3.3h-.946a.3.3 0 0 1-.3-.3Zm0 2.471a.3.3 0 0 1 .3-.3h.945a.3.3 0 0 1 .3.3v1.083a.3.3 0 0 1-.3.3h-.946a.3.3 0 0 1-.3-.3Zm-2.262-7.413a.3.3 0 0 1 .3-.3h.946a.3.3 0 0 1 .3.3v1.083a.3.3 0 0 1-.3.3h-.946a.3.3 0 0 1-.3-.3Zm0 2.471a.3.3 0 0 1 .3-.3h.946a.3.3 0 0 1 .3.3v1.083a.3.3 0 0 1-.3.3h-.946a.3.3 0 0 1-.3-.3Zm0 2.471a.3.3 0 0 1 .3-.3h.946a.3.3 0 0 1 .3.3v1.083a.3.3 0 0 1-.3.3h-.946a.3.3 0 0 1-.3-.3Zm.3 2.172h.946a.3.3 0 0 1 .3.3v1.083a.3.3 0 0 1-.3.3h-.946a.3.3 0 0 1-.3-.3v-1.083a.3.3 0 0 1 .299-.299Zm-1.242 2.387v-5.976l-2.47-1.439v7.415Zm-1.025-1.53h-.359a.18.18 0 0 1 0-.359h.359a.18.18 0 0 1 0 .359Zm-.359-3.712h.359a.18.18 0 0 1 0 .359h-.359a.18.18 0 0 1 0-.359Zm0 1.676h.359a.18.18 0 0 1 0 .359h-.359a.18.18 0 0 1 0-.359Z" data-name="Path 73502"></path><path d="M1252.343 1719.667h.827v.963h-.827Zm-6.327-.6h.839v1.4h-.839Zm10.851 8.014h.827v2.027h-.827Zm-4.524-4.943h.827v.963h-.827Zm4.524 2.471h.827v.963h-.827Zm0-4.942h.827v.963h-.827Zm-2.262 7.414h.827v.963h-.827Zm2.262-4.943h.827v.963h-.827Zm-2.262 2.471h.827v.963h-.827Zm0-2.471h.827v.963h-.827Zm0-2.471h.827v.963h-.827Zm-10.306.234-3 1.443v7.764h3Zm-.73 7.443a.3.3 0 0 1-.3.3h-.958a.3.3 0 0 1-.3-.3v-1.517a.3.3 0 0 1 .3-.3h.959a.3.3 0 0 1 .3.3Zm-.3-2.921h-.958a.3.3 0 0 1-.3-.3v-1.517a.3.3 0 0 1 .3-.3h.959a.3.3 0 0 1 .3.3v1.517a.3.3 0 0 1-.3.3Z" data-name="Path 73503"></path><path d="M1242.372 1725.887h.839v1.4h-.839Zm0-3.221h.839v1.4h-.839Zm16.2 12.043a.18.18 0 0 1 0-.359h1.418v-3.269h-20v3.265h1.43a.18.18 0 0 1 0 .359H1240v2.869a.4.4 0 0 0 .4.4h19.19a.4.4 0 0 0 .4-.4v-2.87Zm-14.026 0h-1.6a.18.18 0 0 1 0-.359h1.6a.18.18 0 0 1 0 .359Zm3.126 0h-1.6a.18.18 0 0 1 0-.359h1.6a.18.18 0 0 1 0 .359Zm3.126 0h-1.6a.18.18 0 0 1 0-.359h1.6a.18.18 0 0 1 0 .359Zm3.126 0h-1.604a.18.18 0 0 1 0-.359h1.6a.18.18 0 0 1 0 .359Zm3.126 0h-1.6a.18.18 0 0 1 0-.359h1.6a.18.18 0 0 1 0 .359Zm2.945-3.988v-1.254h-20v1.254Zm-13.975-3.022h.839v1.408h-.839Z" data-name="Path 73504"></path><path d="M1245.656 1729.103v-1.52a.247.247 0 0 1 .247-.247h1.064a.247.247 0 0 1 .247.247v1.52h1v-11.08h-3.558v11.08Zm0-10.1a.3.3 0 0 1 .3-.3h.959a.3.3 0 0 1 .3.3v1.52a.3.3 0 0 1-.3.3h-.959a.3.3 0 0 1-.3-.3Zm0 2.878a.3.3 0 0 1 .3-.3h.959a.3.3 0 0 1 .3.3v1.522a.3.3 0 0 1-.3.3h-.959a.3.3 0 0 1-.3-.3Zm0 2.878a.3.3 0 0 1 .3-.3h.959a.3.3 0 0 1 .3.3v1.517a.3.3 0 0 1-.3.3h-.959a.3.3 0 0 1-.3-.3Z" data-name="Path 73505"></path><path d="M1246.013 1724.822h.839v1.4h-.839Z" data-name="Path 73506"></path></g></g></svg>