<svg xmlns="http://www.w3.org/2000/svg" width="181" height="11" viewBox="0 0 181 11"><g id="Development_White" data-name="Development White" transform="translate(-37.56 -508.991)"><path id="Path_72014" data-name="Path 72014" d="M47.249,512.471a4.49,4.49,0,0,0-1.088-1.144,5.414,5.414,0,0,0-1.564-.785c-.208-.067-.4-.124-.582-.167a5.173,5.173,0,0,0-.579-.1c-.2-.025-.417-.041-.647-.051-.335-.014-.762-.021-1.192-.007-.133.005-.267.007-.41.007s-.267.018-.4.021-.267.007-.4.007H37.56v.459h1.607v9.54H37.56v.459h2.593c.143,0,.294,0,.452.007s.319.011.482.021.33.018.5.021.321.007.468.007c.34,0,.64-.005.9-.014s.511-.03.729-.059a4.628,4.628,0,0,0,.656-.133,4.791,4.791,0,0,0,.674-.248,5.094,5.094,0,0,0,1.2-.7,4.755,4.755,0,0,0,.975-1.032,4.856,4.856,0,0,0,.654-1.369,5.915,5.915,0,0,0,.238-1.736,6.2,6.2,0,0,0-.2-1.594,4.847,4.847,0,0,0-.625-1.413Zm-2.009-.489a3.986,3.986,0,0,1,.693,1.526,8.948,8.948,0,0,1,.213,2.026,8.006,8.006,0,0,1-.177,1.741,5.267,5.267,0,0,1-.629,1.544,2.953,2.953,0,0,1-.658.775,2.851,2.851,0,0,1-.788.452,3.59,3.59,0,0,1-.894.207,12,12,0,0,1-1.675.035c-.165-.007-.314-.018-.446-.03V510.7l.448-.023c.2-.009.414-.014.652-.014a5.025,5.025,0,0,1,1.989.348,3.168,3.168,0,0,1,1.274.97Z" transform="translate(0 -0.998)" fill="#85754e"></path><path id="Path_72015" data-name="Path 72015" d="M140.364,517.606a5.175,5.175,0,0,1-.2.808,3.345,3.345,0,0,1-.475.931,2.922,2.922,0,0,1-.826.768,2.3,2.3,0,0,1-1.254.316h-2.605v-4.912h1.041a1.634,1.634,0,0,1,.783.163,1.316,1.316,0,0,1,.475.436,2.415,2.415,0,0,1,.288.652c.072.257.142.523.208.8l.025.1h.392v-4.714h-.392l-.025.1a7.722,7.722,0,0,1-.321,1.035,1.786,1.786,0,0,1-.376.6,1.132,1.132,0,0,1-.512.289,3.242,3.242,0,0,1-.778.082H135v-4.168h2.272a3.042,3.042,0,0,1,.971.136,1.807,1.807,0,0,1,.676.406,2.609,2.609,0,0,1,.5.682,6.964,6.964,0,0,1,.4.964l.03.089h.385V510.43H131.69v.459H133.3v9.539H131.69v.459h9.094v-3.395h-.4Z" transform="translate(-77.263 -1.181)" fill="#85754e"></path><path id="Path_72016" data-name="Path 72016" d="M221.135,510.9h1.519l-2.983,7.816-3.023-7.816H218.2v-.459H213.46v.459H214.8l3.939,10.215h.543l3.894-10.215h1.344v-.459h-3.388Z" transform="translate(-144.406 -1.19)" fill="#85754e"></path><path id="Path_72017" data-name="Path 72017" d="M312.144,517.606a5.17,5.17,0,0,1-.2.808,3.344,3.344,0,0,1-.475.931,2.923,2.923,0,0,1-.826.768,2.3,2.3,0,0,1-1.254.316h-2.605v-4.912h1.041a1.633,1.633,0,0,1,.783.163,1.317,1.317,0,0,1,.475.436,2.416,2.416,0,0,1,.288.652c.072.257.142.523.208.8l.025.1H310v-4.714h-.392l-.025.1a7.728,7.728,0,0,1-.321,1.035,1.787,1.787,0,0,1-.376.6,1.132,1.132,0,0,1-.512.289,3.243,3.243,0,0,1-.778.082h-.81v-4.168h2.272a3.041,3.041,0,0,1,.971.136,1.807,1.807,0,0,1,.676.406,2.608,2.608,0,0,1,.5.682,6.96,6.96,0,0,1,.4.964l.03.089h.385V510.43H303.47v.459h1.607v9.539H303.47v.459h9.094v-3.395h-.4Z" transform="translate(-218.3 -1.181)" fill="#85754e"></path><path id="Path_72018" data-name="Path 72018" d="M397.32,517.592a4.71,4.71,0,0,1-1.027,2.092,2.465,2.465,0,0,1-1.9.745h-2.446v-9.539h1.607v-.459H388.63v.459h1.607v9.539H388.63v.459h9.108v-3.395h-.392l-.023.1Z" transform="translate(-288.213 -1.181)" fill="#85754e"></path><path id="Path_72019" data-name="Path 72019" d="M484.067,510.562a5.528,5.528,0,0,0-1.654-1.153,4.444,4.444,0,0,0-3.765,0A5.629,5.629,0,0,0,477,510.56a6.1,6.1,0,0,0-1.2,1.727,5.1,5.1,0,0,0-.468,2.176,5.676,5.676,0,0,0,1.46,3.79,5.307,5.307,0,0,0,1.64,1.211,4.748,4.748,0,0,0,2.07.458,4.483,4.483,0,0,0,2.036-.472,5.616,5.616,0,0,0,1.638-1.233,5.856,5.856,0,0,0,1.1-1.743,5.43,5.43,0,0,0-.039-4.184,5.674,5.674,0,0,0-1.163-1.731Zm-6.078,7.688a4.375,4.375,0,0,1-.561-1.559,12.614,12.614,0,0,1-.172-2.226,13.538,13.538,0,0,1,.129-1.9,5.079,5.079,0,0,1,.486-1.607,2.834,2.834,0,0,1,.984-1.1,3.513,3.513,0,0,1,3.286,0,2.845,2.845,0,0,1,.984,1.1,5.153,5.153,0,0,1,.487,1.607,13.566,13.566,0,0,1,.129,1.9,12.594,12.594,0,0,1-.172,2.226,4.373,4.373,0,0,1-.561,1.559,2.43,2.43,0,0,1-1,.913,3.962,3.962,0,0,1-3.032,0,2.457,2.457,0,0,1-.991-.913Z" transform="translate(-359.39 0)" fill="#85754e"></path><path id="Path_72020" data-name="Path 72020" d="M575.03,510.959a4.1,4.1,0,0,0-1.256-.571,5.907,5.907,0,0,0-1.562-.2c-.136,0-.271,0-.4.007s-.26.007-.4.007-.267.018-.4.021-.267.007-.4.007H567.75v.459h1.607v9.539H567.75v.459h4.924v-.459h-1.607v-4.444c.127.02.267.037.419.055a4.9,4.9,0,0,0,.536.037,6.355,6.355,0,0,0,1.561-.19,4.628,4.628,0,0,0,1.319-.546,3.017,3.017,0,0,0,.923-.883,2.163,2.163,0,0,0,.355-1.216,2.3,2.3,0,0,0-.306-1.182,2.824,2.824,0,0,0-.842-.9Zm-.917.9a4.228,4.228,0,0,1,.14,1.181,2.512,2.512,0,0,1-.564,1.794,2.1,2.1,0,0,1-1.577.583c-.163,0-.348-.009-.554-.028q-.253-.024-.489-.064v-4.646l.217-.016c.147-.009.312-.014.491-.014a5.369,5.369,0,0,1,1.165.11,1.467,1.467,0,0,1,1.172,1.1Z" transform="translate(-435.262 -0.984)" fill="#85754e"></path><path id="Path_72021" data-name="Path 72021" d="M654.16,517.921l-2.57-7.394-.03-.087h-3.48v.459h1.605v9.542H648.08v.459h3.691v-.459h-1.606v-8.8l3.344,9.538,3.358-9.636v8.9H655.26v.459h4.924v-.459h-1.607V510.9h1.607v-.459H656.76Z" transform="translate(-501.211 -1.19)" fill="#85754e"></path><path id="Path_72022" data-name="Path 72022" d="M755.653,517.606a5.17,5.17,0,0,1-.2.808,3.37,3.37,0,0,1-.475.931,2.94,2.94,0,0,1-.824.768,2.309,2.309,0,0,1-1.254.316H750.3v-4.912h1.041a1.634,1.634,0,0,1,.783.163,1.315,1.315,0,0,1,.475.436,2.363,2.363,0,0,1,.289.652q.107.386.21.8l.025.1h.392v-4.714h-.392l-.025.1a7.919,7.919,0,0,1-.321,1.035,1.76,1.76,0,0,1-.376.6,1.124,1.124,0,0,1-.512.289,3.243,3.243,0,0,1-.778.082h-.81v-4.168h2.272a3.042,3.042,0,0,1,.971.136,1.808,1.808,0,0,1,.676.406,2.578,2.578,0,0,1,.5.682,7.049,7.049,0,0,1,.4.964l.03.089h.383V510.43H746.98v.459h1.607v9.539H746.98v.459h9.094v-3.395h-.4l-.014.113Z" transform="translate(-582.402 -1.181)" fill="#85754e"></path><path id="Path_72023" data-name="Path 72023" d="M837.815,510.9h1.607v7.071l-4.72-7.53h-3.3v.459h1.607v9.541H831.4v.459h3.693v-.459h-1.605v-8.677l5.92,9.337h.493V510.9h1.607v-.459h-3.693Z" transform="translate(-651.708 -1.19)" fill="#85754e"></path><path id="Path_72024" data-name="Path 72024" d="M919.382,513.321h.389l.027-.094a4.559,4.559,0,0,1,.568-1.329,2.358,2.358,0,0,1,.67-.686,1.759,1.759,0,0,1,.679-.261,4.779,4.779,0,0,1,.632-.05h.71v9.539H921.45v.459h4.924v-.459h-1.607V510.9h.709a4.472,4.472,0,0,1,.633.05,1.784,1.784,0,0,1,.681.261,2.379,2.379,0,0,1,.67.686,4.613,4.613,0,0,1,.568,1.329l.027.094h.389V510.44H919.38v2.881Z" transform="translate(-723.946 -1.19)" fill="#85754e"></path><path id="Path_72025" data-name="Path 72025" d="M1013.238,515.161a2.642,2.642,0,0,0-.717-.8,3.23,3.23,0,0,0-.853-.447c-.281-.1-.514-.172-.7-.231l-1.752-.545c-.242-.073-.489-.161-.735-.261a2.835,2.835,0,0,1-.638-.357,1.727,1.727,0,0,1-.452-.505,1.411,1.411,0,0,1-.17-.717,1.6,1.6,0,0,1,.219-.876,1.837,1.837,0,0,1,.561-.562,2.331,2.331,0,0,1,.74-.305,2.682,2.682,0,0,1,1.776.119,2.455,2.455,0,0,1,.763.557,2.943,2.943,0,0,1,.52.811,4.082,4.082,0,0,1,.288.967l.018.108h.416v-2.852h-.408l-.038.066a.854.854,0,0,1-.147.213.378.378,0,0,1-.174.023.84.84,0,0,1-.344-.074l-.443-.193a3.947,3.947,0,0,0-.606-.2,4.016,4.016,0,0,0-2.209.147,3.16,3.16,0,0,0-1.048.658,2.914,2.914,0,0,0-.681,1,3.218,3.218,0,0,0-.242,1.247,2.238,2.238,0,0,0,.64,1.669,4.442,4.442,0,0,0,1.828.977l1.666.5a4.439,4.439,0,0,1,.625.236,2.526,2.526,0,0,1,.6.388,1.945,1.945,0,0,1,.448.571,1.719,1.719,0,0,1,.174.8,2.678,2.678,0,0,1-.111.718,1.96,1.96,0,0,1-.382.713,2.053,2.053,0,0,1-.736.545,4.012,4.012,0,0,1-1.785.2,3.024,3.024,0,0,1-.625-.1,2.6,2.6,0,0,1-.641-.259,2.34,2.34,0,0,1-.6-.5,3.7,3.7,0,0,1-.538-.844,5.668,5.668,0,0,1-.4-1.275l-.022-.1h-.4v3.34h.437l.032-.082a.6.6,0,0,1,.113-.19c.009-.011.052-.044.2-.044a1.708,1.708,0,0,1,.536.106q.336.117.629.2c.167.048.323.085.462.112s.272.046.41.066a4.124,4.124,0,0,0,.45.037c.156.005.335.007.539.007a4.155,4.155,0,0,0,1.584-.289,3.706,3.706,0,0,0,1.2-.773,3.362,3.362,0,0,0,.762-1.117,3.47,3.47,0,0,0,.263-1.332A2.467,2.467,0,0,0,1013.238,515.161Z" transform="translate(-794.979 -0.016)" fill="#85754e"></path></g></svg>