<svg xmlns="http://www.w3.org/2000/svg" width="1em" height="1em"><defs><clipPath id="garage-space"><path fill="#85754e" d="M1248 1888h20v20h-20z" data-name="Rectangle 75038"></path></clipPath></defs><g clip-path="url(#garage-space)" data-name="Mask Group 88664" transform="translate(-1248 -1888)"><g fill="#85754e"><path d="M1261.221 1905.175h2.825V1908h-2.825Z" data-name="Path 73508"></path><path d="M1266.682 1908v-5.461H1248V1908h12.05v-4h5.169v4Zm-16.013-2.8h-1.169v-1.168h1.169Zm2.636 0h-1.173v-1.168h1.168Zm2.635 0h-1.172v-1.168h1.171Zm2.719 0h-1.318v-1.168h1.318Zm-10.659-5.3h20v1.464h-20Zm14.048-3.8v-8.1h-8.1v8.1Zm-6.105-6.635h2.211a1.903 1.903 0 1 1 0 3.807h-1.039v1.4h-1.172Z" data-name="Path 73509"></path><path d="M1258.886 1891.369a.733.733 0 0 0-.732-.732h-1.039v1.463h1.039a.733.733 0 0 0 .732-.731Zm-1.617 5.9h1.464v1.464h-1.465Z" data-name="Path 73510"></path></g></g></svg>